<svg width="15" height="15" viewBox="0 0 15 15" fill="current" stroke="current" xmlns="http://www.w3.org/2000/svg">
<path d="M12.3322 12.3353H10.1887V8.97641C10.1887 8.17545 10.1724 7.1447 9.07171 7.1447C7.9541 7.1447 7.78342 8.01623 7.78342 8.9173V12.3353H5.63989V5.42819H7.69898V6.36968H7.72672C8.01442 5.82686 8.71405 5.25388 9.75928 5.25388C11.9312 5.25388 12.3328 6.6833 12.3328 8.54397V12.3353H12.3322ZM3.21891 4.48308C3.05539 4.48316 2.89346 4.45099 2.74238 4.38841C2.59131 4.32583 2.45406 4.23408 2.33849 4.11839C2.22291 4.00271 2.13129 3.86537 2.06886 3.71423C2.00643 3.5631 1.97442 3.40113 1.97465 3.23761C1.97477 2.9914 2.0479 2.75075 2.18479 2.5461C2.32167 2.34145 2.51617 2.18199 2.74369 2.08788C2.9712 1.99377 3.22151 1.96924 3.46297 2.01739C3.70443 2.06554 3.92618 2.18421 4.1002 2.35839C4.27421 2.53257 4.39266 2.75444 4.44058 2.99595C4.4885 3.23745 4.46372 3.48774 4.36939 3.71516C4.27506 3.94258 4.11541 4.13693 3.91063 4.27362C3.70584 4.4103 3.46513 4.4832 3.21891 4.48308V4.48308ZM4.2937 12.3353H2.14413V5.42819H4.2937V12.3353ZM13.4046 0H1.06815C0.47768 0 0 0.466824 0 1.04281V13.4323C0 14.0089 0.47768 14.4752 1.06815 14.4752H13.4028C13.9927 14.4752 14.4752 14.0089 14.4752 13.4323V1.04281C14.4752 0.466824 13.9927 0 13.4028 0H13.4046Z"/>
</svg>
